<svg width="92" height="92" viewBox="0 0 92 92" fill="none" xmlns="http://www.w3.org/2000/svg">
<path d="M60.1467 32.6245C59.8429 32.4675 59.5473 32.2954 59.2607 32.1089C58.4275 31.558 57.6636 30.909 56.9854 30.1757C55.2885 28.2342 54.6548 26.2645 54.4214 24.8854H54.4307C54.2357 23.7407 54.3164 23.0001 54.3285 23.0001H46.5998V52.8857C46.5998 53.287 46.5998 53.6836 46.5829 54.0754C46.5829 54.1242 46.5782 54.1692 46.5754 54.2217C46.5754 54.2432 46.5754 54.2657 46.5707 54.2882C46.5707 54.2939 46.5707 54.2995 46.5707 54.3051C46.4893 55.3774 46.1455 56.4133 45.5698 57.3215C44.994 58.2298 44.2039 58.9827 43.2689 59.5139C42.2944 60.0683 41.1922 60.3591 40.071 60.3576C36.4701 60.3576 33.5517 57.4214 33.5517 53.7951C33.5517 50.1689 36.4701 47.2326 40.071 47.2326C40.7527 47.232 41.4301 47.3393 42.0782 47.5504L42.0876 39.6811C40.1201 39.4269 38.1213 39.5833 36.2173 40.1403C34.3133 40.6973 32.5454 41.6428 31.0251 42.9173C29.693 44.0747 28.5731 45.4558 27.7157 46.9983C27.3895 47.5608 26.1585 49.8211 26.0095 53.4895C25.9157 55.5717 26.541 57.7289 26.8392 58.6204V58.6392C27.0267 59.1642 27.7532 60.9558 28.9373 62.4661C29.8921 63.6776 31.0201 64.7418 32.2851 65.6245V65.6057L32.3039 65.6245C36.0454 68.167 40.1939 68.0001 40.1939 68.0001C40.912 67.9711 43.3176 68.0001 46.0495 66.7054C49.0795 65.2701 50.8045 63.1317 50.8045 63.1317C51.9065 61.854 52.7828 60.3978 53.3957 58.8258C54.0951 56.9873 54.3285 54.7823 54.3285 53.9011V38.0461C54.4223 38.1023 55.671 38.9282 55.671 38.9282C55.671 38.9282 57.4701 40.0814 60.277 40.8323C62.2907 41.3667 65.0039 41.4792 65.0039 41.4792V33.8067C64.0532 33.9098 62.1229 33.6098 60.1467 32.6245Z" fill="#575757"/>
</svg>
